# xmcd CD database file
#
# Track frame offsets:
#	150
#	16235
#	32822
#	46427
#	63690
#	80442
#	99035
#	114752
#	130127
#	144610
#	161185
#	170035
#	182150
#	200775
#	214655
#	229870
#
# Disc length: 3296 seconds
#
# Revision: 1
# Processed by: cddbd v1.5.1PL2 Copyright (c) Steve Scherf et al.
# Submitted via: CDex 1.50
#
DISCID=e10cde10
DTITLE=こおろぎ’73 他 - テレビアニメ スーパーヒストリー vol.29
DYEAR=1900
DGENRE=Anime
TTITLE0=ファンシーガール
TTITLE1=魔法のクレヨン
TTITLE2=カルフォルニア・ドリーミング
TTITLE3=サニー・サイド物語
TTITLE4=パガサス幻想
TTITLE5=永遠ブルー
TTITLE6=正義の使者だぜドテラマン
TTITLE7=もっとブ鬼''ウ鬼''
TTITLE8=南の国のパームタウン
TTITLE9=もっとフレンド
TTITLE10=バビバビバビブー ウルトラB
TTITLE11=ウルトラBにチュッ！
TTITLE12=君のフリーダム
TTITLE13=ジョーク DE 猛ダッシュ
TTITLE14=テレポーテーション −恋の未確認−
TTITLE15=不思議Angel
EXTD=
EXTT0=
EXTT1=
EXTT2=
EXTT3=
EXTT4=
EXTT5=
EXTT6=
EXTT7=
EXTT8=
EXTT9=
EXTT10=
EXTT11=
EXTT12=
EXTT13=
EXTT14=
EXTT15=
PLAYORDER=
